<svg width="512" height="512" viewBox="0 0 512 512" xmlns="http://www.w3.org/2000/svg">
  <defs>
    <linearGradient id="g" x1="0" x2="1" y1="0" y2="1">
      <stop offset="0" stop-color="#60a5fa"/>
      <stop offset="1" stop-color="#2563eb"/>
    </linearGradient>
    <linearGradient id="g2" x1="0" x2="0" y1="0" y2="1">
      <stop offset="0" stop-color="#93c5fd"/>
      <stop offset="1" stop-color="#1d4ed8"/>
    </linearGradient>
  </defs>
  <rect width="512" height="512" rx="56" fill="#0b1220"/>
  <g transform="translate(64,64)">
    <path d="M64 256c0-106 86-192 192-192 20 0 39 3 57 9l-26 42c-10-2-20-3-31-3-88 0-160 72-160 160 0 10 1 19 3 29l-35 33c-0-2-0-5-0-8z" fill="url(#g)"/>
    <path d="M320 64c-8 12-21 38-21 64 0 97-79 176-176 176-27 0-53-6-75-17l-44 40c35 22 77 33 120 33 132 0 240-108 240-240 0-21-3-41-9-60l-35 4z" fill="url(#g2)"/>
    <circle cx="288" cy="112" r="22" fill="#fff"/>
  </g>
  <text x="256" y="462" font-size="46" font-family="Inter, Arial, sans-serif" text-anchor="middle" fill="#e2e8f0" font-weight="800">LUMAFORGE</text>
</svg>
